<svg width="223" height="290" viewBox="0 0 223 290" fill="none" xmlns="http://www.w3.org/2000/svg">
<path d="M214.571 109.177C216.66 109.177 218.361 110.871 218.289 112.959C217.69 130.225 213.001 147.123 204.585 162.252C195.556 178.484 182.534 192.144 166.752 201.939C150.97 211.735 132.95 217.341 114.396 218.229C95.8426 219.117 77.3693 215.257 60.7241 207.013C44.0788 198.77 29.8119 186.416 19.2733 171.12C8.7347 155.825 2.27279 138.093 0.498967 119.603C-1.27486 101.113 1.69806 82.4766 9.13644 65.4563C16.0693 49.5928 26.6676 35.6223 40.0383 24.6817C41.6553 23.3586 44.0336 23.6843 45.2999 25.3462C46.5662 27.008 46.2404 29.3763 44.6269 30.7035C32.2783 40.861 22.4866 53.8022 16.0692 68.4862C9.14634 84.327 6.37945 101.672 8.03035 118.881C9.68125 136.089 15.6953 152.592 25.5036 166.828C35.3119 181.063 48.5901 192.561 64.0818 200.233C79.5736 207.906 96.7667 211.498 114.034 210.672C131.302 209.846 148.074 204.627 162.762 195.511C177.45 186.394 189.57 173.681 197.974 158.574C205.764 144.57 210.123 128.938 210.718 112.959C210.796 110.872 212.482 109.177 214.571 109.177Z" fill="#1974B6"/>
<path d="M193.341 109.177C194.839 109.177 196.059 110.392 196.012 111.89C195.579 125.733 191.843 139.285 185.098 151.411C177.912 164.328 167.55 175.197 154.992 182.992C142.433 190.787 128.094 195.248 113.33 195.955C98.5662 196.661 83.8662 193.59 70.6208 187.03C57.3755 180.47 46.0227 170.639 37.6366 158.468C29.2506 146.297 24.1086 132.187 22.6971 117.474C21.2855 102.76 23.6512 87.9304 29.5703 74.3866C35.1268 61.6724 43.6422 50.4863 54.3904 41.7528C55.5534 40.8077 57.259 41.041 58.1673 42.233C59.0755 43.425 58.8423 45.1241 57.6813 46.0716C47.6665 54.2438 39.7298 64.6917 34.543 76.5598C28.9937 89.2576 26.7758 103.161 28.0992 116.955C29.4225 130.749 34.2433 143.978 42.1055 155.389C49.9677 166.8 60.6113 176.017 73.0293 182.167C85.4473 188.317 99.2291 191.197 113.071 190.534C126.912 189.872 140.356 185.689 152.13 178.381C163.904 171.073 173.619 160.882 180.355 148.773C186.652 137.454 190.152 124.809 190.582 111.89C190.632 110.392 191.842 109.177 193.341 109.177Z" fill="#1974B6"/>
<path d="M58.7656 134.336C61.8906 137.852 65.1458 141.107 68.5312 144.102C71.9167 146.966 75.4974 149.505 79.2734 151.719C83.0495 153.802 87.0208 155.43 91.1875 156.602C95.4844 157.773 99.9766 158.359 104.664 158.359C110.523 158.359 116.383 157.318 122.242 155.234C128.102 153.021 133.375 150.026 138.062 146.25C142.88 142.344 146.786 137.721 149.781 132.383C152.776 127.044 154.273 121.25 154.273 115C154.273 111.484 153.427 108.424 151.734 105.82C150.042 103.086 147.828 100.807 145.094 98.9844C142.49 97.1615 139.495 95.7943 136.109 94.8828C132.854 93.8411 129.599 93.3203 126.344 93.3203C124.651 93.3203 122.503 93.5807 119.898 94.1016C117.424 94.4922 114.755 95.0781 111.891 95.8594C109.026 96.5104 106.096 97.3568 103.102 98.3984C100.107 99.3099 97.3073 100.352 94.7031 101.523C92.099 102.695 89.8854 103.932 88.0625 105.234C86.2396 106.406 84.9375 107.578 84.1562 108.75C84.1562 109.401 84.026 110.508 83.7656 112.07C83.6354 113.633 83.4401 115.391 83.1797 117.344C83.0495 119.167 82.9193 120.924 82.7891 122.617C82.6589 124.18 82.5286 125.286 82.3984 125.938C82.3984 126.719 82.2682 127.695 82.0078 128.867C81.7474 129.909 81.4219 131.016 81.0312 132.188C80.7708 133.229 80.3151 134.271 79.6641 135.312C79.1432 136.354 78.4271 137.201 77.5156 137.852C75.6927 137.07 74.3906 135.833 73.6094 134.141C72.8281 132.318 72.3073 130.365 72.0469 128.281C71.9167 126.068 71.9167 123.919 72.0469 121.836C72.1771 119.622 72.2422 117.799 72.2422 116.367C72.2422 115.065 72.2422 112.917 72.2422 109.922C72.3724 106.927 72.5026 103.411 72.6328 99.375C72.8932 95.3385 73.2188 90.9766 73.6094 86.2891C74.1302 81.4714 74.7812 76.7188 75.5625 72.0312C76.3438 67.2135 77.3203 62.6562 78.4922 58.3594C79.6641 53.9323 81.0964 50.026 82.7891 46.6406C84.4818 43.125 86.4349 40.3906 88.6484 38.4375C90.9922 36.3542 93.5964 35.3125 96.4609 35.3125C99.8464 35.3125 102.841 36.0938 105.445 37.6562C108.18 39.2188 110.458 41.237 112.281 43.7109C114.234 46.0547 115.732 48.7891 116.773 51.9141C117.945 54.9089 118.531 57.9688 118.531 61.0938C118.531 63.5677 118.076 65.9766 117.164 68.3203C116.253 70.5339 115.276 72.6823 114.234 74.7656C113.323 76.849 112.411 78.9323 111.5 81.0156C110.589 83.099 110.133 85.2474 110.133 87.4609C113.258 87.4609 116.773 87.526 120.68 87.6562C124.586 87.7865 128.557 88.112 132.594 88.6328C136.63 89.1536 140.536 90.0651 144.312 91.3672C148.219 92.5391 151.669 94.2318 154.664 96.4453C157.659 98.5286 160.003 101.198 161.695 104.453C163.518 107.708 164.43 111.68 164.43 116.367C164.43 121.055 163.583 125.547 161.891 129.844C160.198 134.01 157.854 137.917 154.859 141.562C151.995 145.208 148.609 148.464 144.703 151.328C140.927 154.193 136.826 156.667 132.398 158.75C128.102 160.833 123.674 162.461 119.117 163.633C114.69 164.674 110.393 165.195 106.227 165.195C104.013 165.195 101.214 164.87 97.8281 164.219C94.5729 163.438 91.1875 162.461 87.6719 161.289C84.1562 159.987 80.6406 158.424 77.125 156.602C73.7396 154.648 70.6797 152.63 67.9453 150.547C65.2109 148.333 62.9974 145.924 61.3047 143.32C59.612 140.716 58.7656 137.982 58.7656 135.117V134.336ZM98.8047 43.9062C97.112 43.9062 95.6146 44.7526 94.3125 46.4453C93.0104 48.138 91.8385 50.3516 90.7969 53.0859C89.8854 55.6901 89.1042 58.6198 88.4531 61.875C87.9323 65 87.4115 68.125 86.8906 71.25C86.5 74.2448 86.2396 76.9792 86.1094 79.4531C85.9792 81.9271 85.9141 83.75 85.9141 84.9219C85.9141 85.3125 85.9141 86.0286 85.9141 87.0703C85.9141 87.9818 85.9141 88.9583 85.9141 90C85.9141 91.0417 85.9141 92.0833 85.9141 93.125C85.9141 94.0365 85.9141 94.6875 85.9141 95.0781C89.0391 92.9948 92.0339 90.7161 94.8984 88.2422C97.763 85.7682 100.302 83.1641 102.516 80.4297C104.859 77.5651 106.682 74.5052 107.984 71.25C109.417 67.8646 110.133 64.1536 110.133 60.1172C110.133 58.2943 109.938 56.4062 109.547 54.4531C109.156 52.5 108.505 50.7422 107.594 49.1797C106.812 47.6172 105.641 46.3802 104.078 45.4688C102.646 44.4271 100.888 43.9062 98.8047 43.9062Z" fill="#FED201"/>
</svg>
